<?xml version="1.0" encoding="UTF-8"?>
<!DOCTYPE svg PUBLIC "-//W3C//DTD SVG 1.1//EN" "http://www.w3.org/Graphics/SVG/1.1/DTD/svg11.dtd">
<!-- Creator: CorelDRAW 2018 (64-Bit Evaluation Version) -->
<svg xmlns="http://www.w3.org/2000/svg" xml:space="preserve" width="2.28115in" height="0.333335in" version="1.1" style="shape-rendering:geometricPrecision; text-rendering:geometricPrecision; image-rendering:optimizeQuality; fill-rule:evenodd; clip-rule:evenodd"
viewBox="0 0 615.55 89.95"
 xmlns:xlink="http://www.w3.org/1999/xlink">
 <defs>
  <style type="text/css">
   <![CDATA[
    .fil0 {fill:#0149A6}
    .fil3 {fill:#FBFBFD}
    .fil1 {fill:url(#id0)}
    .fil2 {fill:url(#id1)}
   ]]>
  </style>
  <linearGradient id="id0" gradientUnits="userSpaceOnUse" x1="164.22" y1="0.62" x2="97.02" y2="88.97">
   <stop offset="0" style="stop-opacity:1; stop-color:#0049A8"/>
   <stop offset="0.478431" style="stop-opacity:1; stop-color:#054DAA"/>
   <stop offset="1" style="stop-opacity:1; stop-color:#0064D0"/>
  </linearGradient>
  <linearGradient id="id1" gradientUnits="userSpaceOnUse" x1="50.17" y1="89.78" x2="50.17" y2="0.15">
   <stop offset="0" style="stop-opacity:1; stop-color:#FEA90E"/>
   <stop offset="1" style="stop-opacity:1; stop-color:#FF5601"/>
  </linearGradient>
 </defs>
 <g id="Layer_x0020_1">
  <metadata id="CorelCorpID_0Corel-Layer"/>
  <path class="fil0" d="M292.07 89.17l-0.01 -8.83c-9.73,-1.07 -24.98,-0.17 -35.3,-0.17 -12.1,0 -24.56,2.8 -23.76,-11.67l71 0c1.37,17.38 5.65,20.76 26.44,20.93 13.07,0.1 35.04,1.23 47.16,-0.22l-0.01 -8.91c-10.81,-0.82 -24.28,-0.13 -35.34,-0.13 -11.8,0 -24.67,2.73 -23.72,-11.68 15.86,0.01 32.27,0.4 48.06,-0.04 8.73,-0.24 13.41,-1.42 13.98,-10.5 0.54,-8.66 0.19,-15.51 -6.03,-18.42 -7.13,-3.34 -36.14,-2.12 -46.2,-2.01 -23.66,0.24 -24.12,7.18 -24.26,24.54l-9.65 -0c5.15,-27.03 -9.49,-24.55 -30.75,-24.55 -17.45,0 -41.88,-3.85 -44.76,12.61 -0.78,4.44 -0.67,22.21 0.25,26.58 3.49,16.46 27.4,12.75 44.51,12.75 8.18,0 20.71,0.74 28.36,-0.25z"/>
  <path class="fil0" d="M453.81 46.45c12.74,1.66 41.99,-0.92 51.66,0.54 6.41,0.96 7.41,4.44 7.26,11 -13.07,0.3 -52.41,-2.56 -58.95,4.38 -3.35,3.55 -3.86,12 -2.33,17.69 3.11,11.61 21.18,9.51 33.33,9.51 13.74,-0 28.93,0.6 42.49,-0.1 0.18,-10.47 -0,-21.06 0.03,-31.55 0.04,-12.02 -1.03,-17.14 -11.95,-19.45 -5.54,-1.17 -56.06,-1.69 -61.62,-0.54l0.08 8.51z"/>
  <path class="fil1" d="M66.88 73.13c-2.42,3.67 -9.91,11.88 -4.73,15.43 2.58,1.66 25.43,0.78 31.94,0.85 5.06,0.05 6.29,0.51 8.49,-2.85 5.82,-8.86 12.27,-17.82 17.49,-26.82 3.76,-5.82 25.72,-39.74 28.28,-42.11l24.06 37.04c3.96,6.24 7.95,12.48 12.07,18.52 5.29,7.77 9.69,18.33 14.59,15.45 5.86,-3.44 -3.98,-14.18 -9.43,-22.68 -4.78,-7.46 -9.55,-14.48 -14.31,-21.82l-21.47 -32.75c-2.65,-4 -5.43,-7.55 -7.27,-11.31l-31.92 -0.08c-15.85,24.95 -30.99,47.85 -47.78,73.13z"/>
  <path class="fil0" d="M537.12 80.37l-0.08 9.18 60.68 -0.06c10.68,-0.54 17.28,-1.49 17.78,-12.76 0.52,-11.93 -3.16,-15.38 -14.6,-16.1 -8.45,-0.53 -41.37,0.21 -45.17,-0.71 -4.64,-1.12 -5.86,-6.75 -3.56,-10.41 3.27,-5.2 48.51,-1.23 58.25,-2.82l0.07 -8.88 -61 0.13c-10.9,1.27 -13.77,6.17 -12.61,17.91 0.96,9.75 9.5,10.82 19.48,10.83 10.2,0.01 20.42,-0.08 30.62,-0 4.2,0.03 10.93,-0.61 13.24,2.35 2.39,3.06 1.45,9.06 -2.07,10.47 -5.24,2.09 -50.81,0.28 -61.02,0.88z"/>
  <path class="fil0" d="M390.16 48.18l0.11 41.41 14.15 0.01c3.66,-29.98 -8.27,-42.08 13.62,-42.07l29.1 -0.08 0.02 -9.67c-7.39,-0.32 -29.4,-0.88 -35.21,0.81 -3.38,0.99 -5.05,2.71 -7.23,4.07 -0.06,-2.36 0.21,-3.19 -0.58,-4.94l-13.94 -0.14 -0.03 10.59z"/>
  <path class="fil2" d="M3.39 77.77c-9.71,15.56 2.24,11.53 26.05,11.56 10.77,0.02 6.98,-0.36 13.51,-9.58l41.99 -65.82 10.83 16.46 4.57 -7.24 -14.59 -23.01 -31.36 0.3c-1.45,1.17 -6.56,10.12 -8.52,12.62 -14.29,21.73 -28.2,43.07 -42.47,64.7z"/>
  <path class="fil3" d="M512.71 80.32l0.15 -15.65c-5.1,-1.07 -21.77,-0.29 -28.08,-0.29 -8.67,-0 -19.97,-2.16 -19.9,8.13 0.07,9.99 10.91,7.98 19.9,7.98 7.51,0 21.18,0.79 27.93,-0.18z"/>
  <path class="fil3" d="M232.95 62.11c5.9,-0.13 42.65,1.34 46.16,-1.3 2.7,-2.02 2.65,-9.59 -0.02,-12 -3.73,-3.35 -22.86,-1.97 -29.28,-1.98 -15.03,-0.01 -17.33,-0.22 -16.86,15.27z"/>
  <path class="fil3" d="M318.48 62.09c5.71,-0.06 42.75,1.28 46.16,-1.3 2.64,-2 2.67,-9.44 -0.03,-11.97 -3.56,-3.32 -22.9,-1.98 -29.29,-1.98 -14.94,-0.02 -17.35,-0.21 -16.84,15.26z"/>
 </g>
</svg>
